<svg xmlns="http://www.w3.org/2000/svg"><symbol id="special-badge" viewBox="0 0 45.2 44.4"><circle cx="22.6" cy="22.4" r="20.7" fill="#fff" stroke="#178fa7" stroke-miterlimit="10" stroke-width="1.95"/><circle cx="22.6" cy="22.4" r="18.4" fill="none" stroke="#178fa7" stroke-miterlimit="10" stroke-width=".67"/><path fill="#178fa7" d="M9 28.4a1.9 1.9 0 0 1-.9-.5 1.6 1.6 0 0 1-.5-.9 1.4 1.4 0 0 1 0-.9 2 2 0 0 1 .4-.8.9.9 0 0 1 .7-.3.9.9 0 0 1 .7 0 .7.7 0 0 1 .4.5 1 1 0 0 0-.8.4 1 1 0 0 0-.2.9c.1.3.2.6.4.7a1.3 1.3 0 0 0 .9.1 1.6 1.6 0 0 0 .8-.6 1.2 1.2 0 0 0 .2-1 4.1 4.1 0 0 0-.5-.9 5.3 5.3 0 0 0-1.1-.9l-1.1-1a1.9 1.9 0 0 1-.5-1 1.2 1.2 0 0 1 .1-1 1.3 1.3 0 0 1 .7-.9 2.2 2.2 0 0 1 1.2-.5 1.7 1.7 0 0 1 1.4.1 1.4 1.4 0 0 1 .8.9 1.1 1.1 0 0 1-.1.8.7.7 0 0 1-.5.4.6.6 0 0 1-.7-.2.5.5 0 0 0 .2-.4v-.6a.5.5 0 0 0-.3-.5h-.6a1.8 1.8 0 0 0-.7.5 1.9 1.9 0 0 0-.1.8 1.4 1.4 0 0 0 .5.8l.9.8.9.6.6.7a3.6 3.6 0 0 1 .4.9 1.9 1.9 0 0 1-.1 1.3 2.4 2.4 0 0 1-.9 1.1 3.1 3.1 0 0 1-1.4.7 2.4 2.4 0 0 1-1.2-.1zm4.3-6.9l1.5-.4v.9a2.5 2.5 0 0 1 1.2-.8 1.6 1.6 0 0 1 1 .2 3.2 3.2 0 0 1 .7 1.3 9.1 9.1 0 0 1 .1 1.7 4.8 4.8 0 0 1-.5 1.7 2 2 0 0 1-1.5.9c-.4.1-.8.1-1-.2v2.8l-1.5.7zm2.7 4a2.8 2.8 0 0 0 .3-1.3 5.7 5.7 0 0 0-.1-1.3c-.1-.5-.4-.8-.8-.7l-.3.2-.3.5V26c.1.2.3.2.5.2a1 1 0 0 0 .7-.7zm3 .4a1.8 1.8 0 0 1-.8-1.2 4.8 4.8 0 0 1 0-1.7 2.7 2.7 0 0 1 .6-1.7 2.1 2.1 0 0 1 1.5-1c.8-.2 1.3.1 1.4.7a1.7 1.7 0 0 1-.1 1.2 1.8 1.8 0 0 1-.7 1 2.7 2.7 0 0 1-1.2.6 1.3 1.3 0 0 1 .1.5 2.4 2.4 0 0 0 .3.7.8.8 0 0 0 .7 0 1.3 1.3 0 0 0 .9-.5 2 2 0 0 0 .7-1h.4a3.6 3.6 0 0 1-2.5 2.7 1.8 1.8 0 0 1-1.3-.3zm1.4-3a3.5 3.5 0 0 0 .5-.8 2.7 2.7 0 0 0 0-.9c-.1-.3-.2-.4-.4-.4a1.7 1.7 0 0 0-.6.9 7.8 7.8 0 0 0-.2 1.6z"/><path fill="#178fa7" d="M23.1 25a1.5 1.5 0 0 1-.7-1.2 4.6 4.6 0 0 1-.1-1.7 4.9 4.9 0 0 1 .6-1.7 2.5 2.5 0 0 1 1.5-1c.5-.1.8-.1 1 .1a.7.7 0 0 1 .4.6q.1.4 0 .6c-.1.2-.2.3-.4.3H25a.8.8 0 0 0 0-.7.4.4 0 0 0-.1-.3h-.3a1 1 0 0 0-.5.7 5.9 5.9 0 0 0-.2 1.4 6.5 6.5 0 0 0 0 1.4c.1.3.2.6.4.7h.6a1.3 1.3 0 0 0 .9-.5 2.9 2.9 0 0 0 .8-1h.3a3.5 3.5 0 0 1-2.5 2.6 1.8 1.8 0 0 1-1.3-.3z"/><path fill="#178fa7" d="M26.8 18.1a.6.6 0 0 1-.3-.6.7.7 0 0 1 .1-.6 1 1 0 0 1 .5-.4h.7a1.3 1.3 0 0 1 .4.6 1.3 1.3 0 0 1-.1.6c-.2.2-.4.4-.6.4a.9.9 0 0 1-.7 0zm.4 6.2a1.5 1.5 0 0 1-.6-.9V19l1.5-.3v3.8a.8.8 0 0 0 .1.4.4.4 0 0 0 .1.3h.4a1 1 0 0 0 .5-.4 1.9 1.9 0 0 0 .2-.8h.5a2.7 2.7 0 0 1-.7 1.8 1.9 1.9 0 0 1-1.1.7 1.3 1.3 0 0 1-.9-.2z"/><path fill="#178fa7" d="M30.1 23.5a1.5 1.5 0 0 1-.7-1.2 3.2 3.2 0 0 1-.1-1.7 4.3 4.3 0 0 1 .6-1.7 2.8 2.8 0 0 1 1.4-1h.7a.3.3 0 0 1 .3.3v-.6l1.6-.3v4.1c.1.3.3.5.5.4s.4-.2.5-.4a1.9 1.9 0 0 0 .2-.8h.5a3.8 3.8 0 0 1-.7 1.8 2.6 2.6 0 0 1-1.1.7H33a1.6 1.6 0 0 1-.4-.7l-.6.9a1.2 1.2 0 0 1-.8.4 1.4 1.4 0 0 1-1.1-.2zm2-1.3a1.1 1.1 0 0 0 .2-.8v-2.8h-.4a1.2 1.2 0 0 0-.7.7l-.3 1.3a4.9 4.9 0 0 0 .1 1.3 1.5 1.5 0 0 0 .3.7c.2 0 .3.1.4 0a.5.5 0 0 0 .4-.4z"/><path fill="#178fa7" d="M35.7 22.4a1.5 1.5 0 0 1-.6-.9v-6.4l1.5-.5v6.1a.4.4 0 0 0 .1.3c0 .3.2.4.5.3h.3a1 1 0 0 1-.2.9 1.8 1.8 0 0 1-.7.5c-.4-.1-.7-.1-.9-.3z"/></symbol><symbol id="card-icon" viewBox="0 0 50.5 111.1"><path fill="none" stroke="#231f20" stroke-miterlimit="10" stroke-width=".69" d="M42.9 93.3c0-.8-7.3-1.4-16.3-1.4s-16.4.6-16.4 1.4 2.7 1 6.8 1.2 6 .3 9.6.3c9 0 16.3-.7 16.3-1.5z"/><path fill="none" stroke="#231f20" stroke-miterlimit="10" stroke-width=".69" d="M10.2 93.4s5.5 14.8 11.3 14.8h10.1c5.8 0 11.3-14.8 11.3-14.8"/><path fill="none" stroke="#231f20" stroke-miterlimit="10" stroke-width=".66" d="M41.6 96.7s4.1-3.6 5.2-.1-1 5.4-3.9 6.7a32.9 32.9 0 0 1-6.4 1.9"/><path fill="none" stroke="#231f20" stroke-miterlimit="10" stroke-width=".5" d="M6 104.7c2.4-1.9.4-5.2.4-5.2s-1.9-6.2 3.1-7.6c0 0 5.3-1.9 4.6 2.2"/><path fill="none" stroke="#231f20" stroke-miterlimit="10" stroke-width=".5" d="M5 103.5l2.5 2.4-3 2.8-1.8-2.6 2.3-2.6z"/></symbol><symbol id="nav-toggle" viewBox="0 0 41.2 41.4"><path fill="none" stroke="#231f20" stroke-linecap="round" stroke-miterlimit="10" stroke-width=".38" d="M22 20s-2.9-1.2-.8-3.6 0-4.1 0-4.1"/><path fill="#fff" stroke="#231f20" stroke-linecap="round" stroke-miterlimit="10" stroke-width=".38" d="M8.6 22.6S5.9 35.3 21.4 35.3s12.7-12.9 12.7-12.9"/><path fill="#178fa7" stroke="#231f20" stroke-linecap="round" stroke-miterlimit="10" stroke-width=".57" d="M9.1 22.4h24.7a.4.4 0 0 1 .4.4c-.1 2.1-1 10.9-12.8 11s-13.1-8.4-12.7-11a.4.4 0 0 1 .4-.4z"/><path fill="none" stroke="#231f20" stroke-linecap="round" stroke-miterlimit="10" stroke-width=".38" d="M18.3 20.2s-1.4-.5-.4-1.6a1.2 1.2 0 0 0 0-1.9m6.6 3.5s1.4-.5.4-1.6a1.2 1.2 0 0 1 0-1.9"/></symbol><symbol id="nav-toggle-hover" viewBox="0 0 41.3 40.8"><path fill="none" stroke="#231f20" stroke-linecap="round" stroke-miterlimit="10" stroke-width="2" d="M10.9 14.9h19.7m-19.7 5.5h19.7m-19.8 5.4h19.7"/></symbol><symbol id="special-badge" viewBox="0 0 45.2 44.4"><circle cx="22.6" cy="22.4" r="20.7" fill="#fff" stroke="#178fa7" stroke-miterlimit="10" stroke-width="1.95"/><circle cx="22.6" cy="22.4" r="18.4" fill="none" stroke="#178fa7" stroke-miterlimit="10" stroke-width=".67"/><path fill="#178fa7" d="M9 28.4a1.9 1.9 0 0 1-.9-.5 1.6 1.6 0 0 1-.5-.9 1.4 1.4 0 0 1 0-.9 2 2 0 0 1 .4-.8.9.9 0 0 1 .7-.3.9.9 0 0 1 .7 0 .7.7 0 0 1 .4.5 1 1 0 0 0-.8.4 1 1 0 0 0-.2.9c.1.3.2.6.4.7a1.3 1.3 0 0 0 .9.1 1.6 1.6 0 0 0 .8-.6 1.2 1.2 0 0 0 .2-1 4.1 4.1 0 0 0-.5-.9 5.3 5.3 0 0 0-1.1-.9l-1.1-1a1.9 1.9 0 0 1-.5-1 1.2 1.2 0 0 1 .1-1 1.3 1.3 0 0 1 .7-.9 2.2 2.2 0 0 1 1.2-.5 1.7 1.7 0 0 1 1.4.1 1.4 1.4 0 0 1 .8.9 1.1 1.1 0 0 1-.1.8.7.7 0 0 1-.5.4.6.6 0 0 1-.7-.2.5.5 0 0 0 .2-.4v-.6a.5.5 0 0 0-.3-.5h-.6a1.8 1.8 0 0 0-.7.5 1.9 1.9 0 0 0-.1.8 1.4 1.4 0 0 0 .5.8l.9.8.9.6.6.7a3.6 3.6 0 0 1 .4.9 1.9 1.9 0 0 1-.1 1.3 2.4 2.4 0 0 1-.9 1.1 3.1 3.1 0 0 1-1.4.7 2.4 2.4 0 0 1-1.2-.1zm4.3-6.9l1.5-.4v.9a2.5 2.5 0 0 1 1.2-.8 1.6 1.6 0 0 1 1 .2 3.2 3.2 0 0 1 .7 1.3 9.1 9.1 0 0 1 .1 1.7 4.8 4.8 0 0 1-.5 1.7 2 2 0 0 1-1.5.9c-.4.1-.8.1-1-.2v2.8l-1.5.7zm2.7 4a2.8 2.8 0 0 0 .3-1.3 5.7 5.7 0 0 0-.1-1.3c-.1-.5-.4-.8-.8-.7l-.3.2-.3.5V26c.1.2.3.2.5.2a1 1 0 0 0 .7-.7zm3 .4a1.8 1.8 0 0 1-.8-1.2 4.8 4.8 0 0 1 0-1.7 2.7 2.7 0 0 1 .6-1.7 2.1 2.1 0 0 1 1.5-1c.8-.2 1.3.1 1.4.7a1.7 1.7 0 0 1-.1 1.2 1.8 1.8 0 0 1-.7 1 2.7 2.7 0 0 1-1.2.6 1.3 1.3 0 0 1 .1.5 2.4 2.4 0 0 0 .3.7.8.8 0 0 0 .7 0 1.3 1.3 0 0 0 .9-.5 2 2 0 0 0 .7-1h.4a3.6 3.6 0 0 1-2.5 2.7 1.8 1.8 0 0 1-1.3-.3zm1.4-3a3.5 3.5 0 0 0 .5-.8 2.7 2.7 0 0 0 0-.9c-.1-.3-.2-.4-.4-.4a1.7 1.7 0 0 0-.6.9 7.8 7.8 0 0 0-.2 1.6z"/><path fill="#178fa7" d="M23.1 25a1.5 1.5 0 0 1-.7-1.2 4.6 4.6 0 0 1-.1-1.7 4.9 4.9 0 0 1 .6-1.7 2.5 2.5 0 0 1 1.5-1c.5-.1.8-.1 1 .1a.7.7 0 0 1 .4.6q.1.4 0 .6c-.1.2-.2.3-.4.3H25a.8.8 0 0 0 0-.7.4.4 0 0 0-.1-.3h-.3a1 1 0 0 0-.5.7 5.9 5.9 0 0 0-.2 1.4 6.5 6.5 0 0 0 0 1.4c.1.3.2.6.4.7h.6a1.3 1.3 0 0 0 .9-.5 2.9 2.9 0 0 0 .8-1h.3a3.5 3.5 0 0 1-2.5 2.6 1.8 1.8 0 0 1-1.3-.3z"/><path fill="#178fa7" d="M26.8 18.1a.6.6 0 0 1-.3-.6.7.7 0 0 1 .1-.6 1 1 0 0 1 .5-.4h.7a1.3 1.3 0 0 1 .4.6 1.3 1.3 0 0 1-.1.6c-.2.2-.4.4-.6.4a.9.9 0 0 1-.7 0zm.4 6.2a1.5 1.5 0 0 1-.6-.9V19l1.5-.3v3.8a.8.8 0 0 0 .1.4.4.4 0 0 0 .1.3h.4a1 1 0 0 0 .5-.4 1.9 1.9 0 0 0 .2-.8h.5a2.7 2.7 0 0 1-.7 1.8 1.9 1.9 0 0 1-1.1.7 1.3 1.3 0 0 1-.9-.2z"/><path fill="#178fa7" d="M30.1 23.5a1.5 1.5 0 0 1-.7-1.2 3.2 3.2 0 0 1-.1-1.7 4.3 4.3 0 0 1 .6-1.7 2.8 2.8 0 0 1 1.4-1h.7a.3.3 0 0 1 .3.3v-.6l1.6-.3v4.1c.1.3.3.5.5.4s.4-.2.5-.4a1.9 1.9 0 0 0 .2-.8h.5a3.8 3.8 0 0 1-.7 1.8 2.6 2.6 0 0 1-1.1.7H33a1.6 1.6 0 0 1-.4-.7l-.6.9a1.2 1.2 0 0 1-.8.4 1.4 1.4 0 0 1-1.1-.2zm2-1.3a1.1 1.1 0 0 0 .2-.8v-2.8h-.4a1.2 1.2 0 0 0-.7.7l-.3 1.3a4.9 4.9 0 0 0 .1 1.3 1.5 1.5 0 0 0 .3.7c.2 0 .3.1.4 0a.5.5 0 0 0 .4-.4z"/><path fill="#178fa7" d="M35.7 22.4a1.5 1.5 0 0 1-.6-.9v-6.4l1.5-.5v6.1a.4.4 0 0 0 .1.3c0 .3.2.4.5.3h.3a1 1 0 0 1-.2.9 1.8 1.8 0 0 1-.7.5c-.4-.1-.7-.1-.9-.3z"/></symbol><symbol id="shopping-cart" viewBox="0 0 27.7 24.6"><defs><linearGradient id="a" x1="15.41" x2="15.31" y1="3.82" y2="25.81" gradientUnits="userSpaceOnUse"><stop offset="0" stop-color="#fff"/><stop offset="0" stop-color="#fdfefe"/><stop offset=".14" stop-color="#b8dde4"/><stop offset=".26" stop-color="#7ec1ce"/><stop offset=".38" stop-color="#52abbd"/><stop offset=".48" stop-color="#329cb1"/><stop offset=".56" stop-color="#1e92aa"/><stop offset=".62" stop-color="#178fa7"/></linearGradient></defs><path fill="url(#a)" stroke="#178fa7" stroke-linecap="round" stroke-linejoin="round" stroke-width=".79" d="M23.4 15.8h-16l-3-11.2h22l-3 11.2z"/><path fill="none" stroke="#178fa7" stroke-linecap="round" stroke-miterlimit="10" stroke-width=".79" d="M4.4 4.6L3.1 1.1h-2"/><circle cx="9.5" cy="21.3" r="1.8" fill="#178fa7"/><circle cx="20.3" cy="21.3" r="1.8" fill="#178fa7"/><path fill="none" stroke="#178fa7" stroke-linecap="round" stroke-linejoin="round" stroke-width=".75" d="M8.5 18.8h12.3"/><path fill="none" stroke="#178fa7" stroke-linecap="round" stroke-miterlimit="10" stroke-width=".79" d="M7.4 15.8l1 3"/></symbol><symbol id="tea-icon" viewBox="0 0 360 168.4"><path fill="none" stroke="#231f20" stroke-miterlimit="10" d="M38.1 113.8L20.3 162h42.9l-17.9-48.2a3.8 3.8 0 0 0-7.2 0z"/><path fill="none" stroke="#231f20" stroke-miterlimit="10" d="M62.7 160.3L74.2 128h-3.4l-14.3 16.1 6.2 16.2zm-29-35.4s-9-5.8-16.3 9.4 6 18.2 6 18.2z"/><circle cx="41.7" cy="108.5" r="1.7" fill="none" stroke="#231f20" stroke-miterlimit="10" stroke-width=".5"/><path fill="none" stroke="#231f20" stroke-miterlimit="10" stroke-width=".5" d="M36.4 118.5h10.2"/><ellipse cx="264.6" cy="146.8" fill="none" stroke="#231f20" stroke-miterlimit="10" stroke-width=".69" rx="16.3" ry="1.5"/><path fill="none" stroke="#231f20" stroke-miterlimit="10" stroke-width=".69" d="M248.3 146.9s5.4 14.8 11.2 14.8h10.2c5.8 0 11.2-14.8 11.2-14.8"/><path fill="none" stroke="#231f20" stroke-miterlimit="10" stroke-width=".66" d="M279.6 150.1s4.1-3.5 5.2-.1-.9 5.4-3.9 6.7a38 38 0 0 1-6.3 2"/><path fill="none" stroke="#231f20" stroke-miterlimit="10" stroke-width=".9" d="M6.3 162h315.4"/></symbol></svg>