<svg xmlns="http://www.w3.org/2000/svg" width="121.6" height="108.5" viewBox="0 0 121.6 108.5"><path fill="none" stroke="#231f20" stroke-linecap="round" stroke-miterlimit="10" stroke-width="1.76" d="M63.8 36.4s-13.6-5.5-3.6-16.5 0-19 0-19"/><path fill="#fff" stroke="#231f20" stroke-linecap="round" stroke-miterlimit="10" stroke-width="1.76" d="M1.7 48.5s-12.4 59.1 59 59.1c66.4 0 59.4-60.1 59.4-60.1"/><path fill="#3c8476" stroke="#231f20" stroke-linecap="round" stroke-miterlimit="10" stroke-width="2.64" d="M4.1 47.5h114.4a1.9 1.9 0 0 1 1.8 1.9c-.3 9.9-4.7 50.8-59.2 50.9C3.8 100.5.4 61.6 2 49.4a2.1 2.1 0 0 1 2.1-1.9z"/><path fill="none" stroke="#231f20" stroke-linecap="round" stroke-miterlimit="10" stroke-width="1.76" d="M46.6 37.6S40.3 35 44.9 30s0-8.9 0-8.9m30.5 16.5s6.3-2.6 1.7-7.6 0-8.9 0-8.9"/></svg>