<svg xmlns="http://www.w3.org/2000/svg" width="2.8in" height="96" viewBox="0 0 201.7 72"><path fill="#fff" d="M8.1 52.1a12.1 12.1 0 0 1-5-4.1 11.1 11.1 0 0 1-1.8-6.3 10.8 10.8 0 0 1 1.3-5.4A9.9 9.9 0 0 1 6 32.4a8.6 8.6 0 0 1 4.7-1.4 6.5 6.5 0 0 1 4 1.2 4.8 4.8 0 0 1 2 3.3 7.9 7.9 0 0 0-5.6 1.9 6.3 6.3 0 0 0-2.1 5 6.3 6.3 0 0 0 1.8 4.7 6.1 6.1 0 0 0 4.7 1.8 7.9 7.9 0 0 0 5.9-2.4 8.4 8.4 0 0 0 2.4-6.1 11.1 11.1 0 0 0-1.8-6.1 64.8 64.8 0 0 0-5.3-6.9 53.1 53.1 0 0 1-5.6-7.3 12.6 12.6 0 0 1-1.8-6.6 10.7 10.7 0 0 1 1.9-6.3 14.4 14.4 0 0 1 5.5-4.5 17.8 17.8 0 0 1 7.8-1.6c3.7 0 6.6.8 8.8 2.6a8.3 8.3 0 0 1 3.3 6.9 7.4 7.4 0 0 1-1.4 4.6 4.6 4.6 0 0 1-3.8 1.8 4.8 4.8 0 0 1-4.1-2.1 8.2 8.2 0 0 0 2-2.5 8 8 0 0 0 .8-3.3 5 5 0 0 0-1.3-3.5 5.3 5.3 0 0 0-3.6-1.3 5.7 5.7 0 0 0-4.4 2 6.8 6.8 0 0 0-1.7 4.9 9.5 9.5 0 0 0 1.5 5.1c1.1 1.5 2.7 3.5 4.9 6s3.3 3.6 4.4 5a21.1 21.1 0 0 1 2.9 4.9 14.5 14.5 0 0 1 1.2 5.9 13.7 13.7 0 0 1-2.5 7.9 16.5 16.5 0 0 1-6.6 5.6 19.7 19.7 0 0 1-9.2 2 18.1 18.1 0 0 1-7.6-1.5zm31.1-1.3a8.6 8.6 0 0 1-2-6.1 22.3 22.3 0 0 1 .6-4.5l4-19.1h-2.2l.5-2.7h2.3l2-9.4 10.1-1.3-2.3 10.7h4.1l-.6 2.7h-4.1l-4.3 20.4a7.8 7.8 0 0 0-.3 2.2 2.1 2.1 0 0 0 .7 1.9 2.9 2.9 0 0 0 2.1.6 5.3 5.3 0 0 0 3.7-1.6 10.4 10.4 0 0 0 2.4-4.4h2.9c-1.7 4.9-3.9 8.3-6.5 10a14.2 14.2 0 0 1-7.8 2.6 7.4 7.4 0 0 1-5.3-2z"/><path fill="#fff" d="M57.8 50.2C56 48.5 55 45.7 55 42a31.4 31.4 0 0 1 1.9-10.3 23.7 23.7 0 0 1 6-9.8 14.2 14.2 0 0 1 10.5-4.1c5 0 7.5 2.2 7.5 6.5a12.4 12.4 0 0 1-2.2 7 16.2 16.2 0 0 1-5.8 5.2 18.5 18.5 0 0 1-7.7 2.2c-.1 1.3-.1 2.2-.1 2.7q0 3.3 1.2 4.5a4.8 4.8 0 0 0 3.7 1.2 11.9 11.9 0 0 0 6.3-1.7 28.5 28.5 0 0 0 5.7-5.2h2.3c-5 8.4-11.2 12.6-18.7 12.6a11.3 11.3 0 0 1-7.8-2.6zm12.8-16.6a11 11 0 0 0 3.6-4.1 10 10 0 0 0 1.4-5.3c0-1.9-.5-2.8-1.7-2.8s-3.2 1.4-4.8 4.3a34.6 34.6 0 0 0-3.3 9.7 9.2 9.2 0 0 0 4.8-1.8z"/><path fill="#fff" d="M83.7 50.2c-1.7-1.8-2.6-4.6-2.6-8.3a31.9 31.9 0 0 1 2-10.6 26.1 26.1 0 0 1 6-9.4 13.5 13.5 0 0 1 9.5-3.8 7.7 7.7 0 0 1 4.2.9 3 3 0 0 1 1.3 2.5v.5l.8-3.6h9.8l-4.9 23.1a7.8 7.8 0 0 0-.3 2.2c0 2 .9 2.9 2.8 2.9a4.2 4.2 0 0 0 3.3-1.7 13.7 13.7 0 0 0 2.2-4.7h2.9c-1.7 4.9-3.8 8.3-6.3 10a12.8 12.8 0 0 1-7.4 2.6 6.3 6.3 0 0 1-4.6-1.6 6.6 6.6 0 0 1-2.1-4.6 20.9 20.9 0 0 1-4.4 4.5 9.8 9.8 0 0 1-5.7 1.7 8.9 8.9 0 0 1-6.5-2.6zM98 44.6a8.8 8.8 0 0 0 2.3-4.4l3.2-15.3a2.7 2.7 0 0 0-.7-1.8 2.6 2.6 0 0 0-2.1-.8c-1.8 0-3.4 1-4.9 3.2a25.4 25.4 0 0 0-3.4 7.6 30.3 30.3 0 0 0-1.2 7.8c0 2.3.3 3.7 1 4.4a3.4 3.4 0 0 0 2.4.9 4.9 4.9 0 0 0 3.4-1.6z"/><path fill="#fff" d="M153.1 50.6a8.1 8.1 0 0 1-2-5.5 13.3 13.3 0 0 1 .4-3.2c.2-1.2.4-2.4.7-3.5a19.8 19.8 0 0 1 .5-2.2c.3-1.6.7-3.1 1-4.7a21.1 21.1 0 0 0 .5-3.7c0-2.3-.8-3.5-2.5-3.5a3.8 3.8 0 0 0-3.1 1.8 13.5 13.5 0 0 0-2.2 4.5l-4.6 21.8H132l5-23.4a11.1 11.1 0 0 0 .2-1.7q0-3-2.1-3a4.2 4.2 0 0 0-3.3 1.7 15.2 15.2 0 0 0-2.2 4.6L125 52.4h-9.8l7.2-34h9.8l-.7 3.5a10.8 10.8 0 0 1 8.3-3.8c3.9 0 6.3 1.9 7 5.8 2.5-3.8 5.6-5.8 9.4-5.8a8 8 0 0 1 5.5 1.9c1.4 1.3 2.1 3.2 2.1 5.8a24.7 24.7 0 0 1-.5 4.4c-.3 1.6-.8 3.6-1.4 5.9s-.7 2.8-1 4.1a14.5 14.5 0 0 0-.4 3.2 3.3 3.3 0 0 0 .6 2.1 2.5 2.5 0 0 0 2.1.7 4.2 4.2 0 0 0 3.3-1.4 17.4 17.4 0 0 0 2.4-4.6h2.9c-1.7 5-3.6 8.4-5.8 10.1a11.1 11.1 0 0 1-6.9 2.5c-2.7 0-4.8-.7-6-2.2z"/><path fill="#fff" d="M173.9 67.3a6.4 6.4 0 0 1-2.4-5.2 7.5 7.5 0 0 1 1.5-4.9 9.7 9.7 0 0 1 3.9-3 54.8 54.8 0 0 1 6.4-2.3l.7-3a10.9 10.9 0 0 1-8.3 3.9 7.2 7.2 0 0 1-5.3-2 8.6 8.6 0 0 1-2-6.1 30.5 30.5 0 0 1 .5-4.5l4.7-21.8h9.7l-4.9 23.1a9.9 9.9 0 0 0-.2 1.7q0 3 2.1 3a3.9 3.9 0 0 0 3.2-1.6 9.6 9.6 0 0 0 2.2-4.4l4.6-21.8h9.9l-8.3 39.5q-1.3 6.5-4.8 9a12.4 12.4 0 0 1-7.6 2.5 8.3 8.3 0 0 1-5.6-2.1zm6.4-5.2a9.4 9.4 0 0 0 1.7-4l.8-4.1a19.3 19.3 0 0 0-5.6 2.9 5.2 5.2 0 0 0-1.9 4.2 1.7 1.7 0 0 0 .8 1.5 2.6 2.6 0 0 0 1.9.8 3.2 3.2 0 0 0 2.3-1.3z"/></svg>