<svg xmlns="http://www.w3.org/2000/svg" width="7in" height="3in" viewBox="0 0 504 215.2"><path fill="none" stroke="#231f20" stroke-miterlimit="10" stroke-width="8.87" d="M22.3 95.9s-51.8 72.6 20.8 91.4 82.7-34.6 79.4-53.4-22.2-46.8-56.4-58-45.9-37.2-23.4-58.1 48.4-8.3 48.4-8.3 19.2 14.2 6.3 38.4"/><path fill="#231f20" d="M155.8 91.9v19.9h18.1v9.6h-18.1v37.4c0 8.7 2.5 13.5 9.5 13.5a30.1 30.1 0 0 0 7.3-.8l.6 9.4a30.9 30.9 0 0 1-11.2 1.8c-5.9 0-10.6-1.9-13.6-5.4s-4.9-9.8-4.9-18v-37.9h-10.8v-9.6h10.8V95.2zm38.5 56.9c.2 17.1 11.1 24.1 23.8 24.1 9 0 14.4-1.6 19.2-3.6l2.1 9.1c-4.4 2-12 4.3-23.1 4.3-21.3 0-34.1-14.1-34.1-35s12.3-37.5 32.6-37.5c22.6 0 28.6 20 28.6 32.7a39.5 39.5 0 0 1-.4 5.9zm37-9c.1-8.1-3.3-20.5-17.5-20.5s-18.4 11.7-19.4 20.5zm66.2 41.4l-1-8.7h-.4a26.2 26.2 0 0 1-21.3 10.3c-14 0-21.2-9.9-21.2-19.9 0-16.8 14.9-26 41.8-25.8v-1.5c0-5.7-1.6-16-15.8-16a35.1 35.1 0 0 0-18.1 5.1l-2.9-8.3a43.6 43.6 0 0 1 22.8-6.2c21.3 0 26.4 14.5 26.4 28.4v26a93 93 0 0 0 1.2 16.6zm-1.9-35.4c-13.7-.3-29.4 2.1-29.4 15.6 0 8.2 5.5 12.1 11.9 12.1a17.3 17.3 0 0 0 16.8-11.6 11.8 11.8 0 0 0 .7-4.1zm32.6-15.2c0-7.2-.2-13.1-.6-18.8h11.1l.5 11.2h.5c3.8-6.6 10.3-12.8 21.8-12.8 9.4 0 16.6 5.8 19.6 13.9h.3a30 30 0 0 1 7.7-9 24.2 24.2 0 0 1 15.4-4.9c9.2 0 22.8 6.1 22.8 30.1v40.9H415v-39.3c0-13.3-4.9-21.3-15.1-21.3-7.2 0-12.8 5.3-14.9 11.4a20.3 20.3 0 0 0-1 6.3v42.9h-12.4v-41.6c0-11-4.8-19-14.4-19-7.9 0-13.7 6.3-15.7 12.6a17.4 17.4 0 0 0-1 6.1v41.9h-12.3zm122.3-18.8l15.2 41c1.6 4.6 3.3 10.1 4.5 14.2h.2c1.3-4.1 2.8-9.4 4.5-14.5l13.8-40.7H502l-18.9 49.5c-9.1 23.8-15.2 36-23.8 43.4a34.5 34.5 0 0 1-15.5 8.2l-3.2-10.6a33.1 33.1 0 0 0 11.1-6.2 39.1 39.1 0 0 0 10.6-14 11.4 11.4 0 0 0 1-3 10.2 10.2 0 0 0-.9-3.3l-25.7-64z"/><path fill="none" stroke="#231f20" stroke-linecap="round" stroke-miterlimit="10" stroke-width="1.76" d="M66.5 130.1s-13.6-5.5-3.6-16.5 0-19 0-19"/><path fill="#fff" stroke="#231f20" stroke-linecap="round" stroke-miterlimit="10" stroke-width="1.76" d="M4.4 142.2s-12.4 59.1 59 59.1c66.4 0 59.3-60.1 59.3-60.1"/><path fill="#3c8476" stroke="#231f20" stroke-linecap="round" stroke-miterlimit="10" stroke-width="2.64" d="M6.7 141.2h114.4a1.9 1.9 0 0 1 1.9 1.9c-.4 9.9-4.8 50.8-59.2 50.9-57.4.2-60.7-38.7-59.2-50.9a2.2 2.2 0 0 1 2.1-1.9z"/><path fill="none" stroke="#231f20" stroke-linecap="round" stroke-miterlimit="10" stroke-width="1.76" d="M49.3 131.3s-6.3-2.6-1.7-7.7 0-8.8 0-8.8m30.5 16.5s6.3-2.6 1.6-7.7.1-8.8.1-8.8"/></svg>